<svg width="113" height="82" viewBox="0 0 113 82" fill="none" xmlns="http://www.w3.org/2000/svg">
<path d="M56 3.75C62.9619 3.75 69.6387 6.51562 74.5616 11.4384C79.4844 16.3613 82.25 23.0381 82.25 30C82.25 36.9619 79.4844 43.6387 74.5616 48.5616C69.6387 53.4844 62.9619 56.25 56 56.25C49.0381 56.25 42.3613 53.4844 37.4384 48.5616C32.5156 43.6387 29.75 36.9619 29.75 30C29.75 23.0381 32.5156 16.3613 37.4384 11.4384C42.3613 6.51562 49.0381 3.75 56 3.75ZM56 52.5C61.9674 52.5 67.6903 50.1295 71.9099 45.9099C76.1295 41.6903 78.5 35.9674 78.5 30C78.5 24.0326 76.1295 18.3097 71.9099 14.0901C67.6903 9.87053 61.9674 7.5 56 7.5C50.0326 7.5 44.3097 9.87053 40.0901 14.0901C35.8705 18.3097 33.5 24.0326 33.5 30C33.5 35.9674 35.8705 41.6903 40.0901 45.9099C44.3097 50.1295 50.0326 52.5 56 52.5ZM58.8125 42.1875C58.8125 42.9334 58.5162 43.6488 57.9887 44.1762C57.4613 44.7037 56.7459 45 56 45C55.2541 45 54.5387 44.7037 54.0113 44.1762C53.4838 43.6488 53.1875 42.9334 53.1875 42.1875C53.1875 41.4416 53.4838 40.7262 54.0113 40.1988C54.5387 39.6713 55.2541 39.375 56 39.375C56.7459 39.375 57.4613 39.6713 57.9887 40.1988C58.5162 40.7262 58.8125 41.4416 58.8125 42.1875ZM56 15C56.4973 15 56.9742 15.1975 57.3258 15.5492C57.6775 15.9008 57.875 16.3777 57.875 16.875V33.75C57.875 34.2473 57.6775 34.7242 57.3258 35.0758C56.9742 35.4275 56.4973 35.625 56 35.625C55.5027 35.625 55.0258 35.4275 54.6742 35.0758C54.3225 34.7242 54.125 34.2473 54.125 33.75V16.875C54.125 16.3777 54.3225 15.9008 54.6742 15.5492C55.0258 15.1975 55.5027 15 56 15Z" fill="#5262F5"/>
<path d="M9.21484 68.4961V79.0195H8.10156V68.4961H9.21484ZM0.882812 72.9609C0.882812 70.7168 2.01367 69.2871 3.60156 69.2812C5.16016 69.2871 6.30859 70.7168 6.30859 72.9609C6.30859 75.2285 5.16016 76.6582 3.60156 76.6523C2.01367 76.6582 0.882812 75.2285 0.882812 72.9609ZM1.96094 72.9609C1.95508 74.6309 2.62305 75.6562 3.60156 75.6562C4.5625 75.6562 5.23047 74.6309 5.23047 72.9609C5.23047 71.3145 4.5625 70.2832 3.60156 70.2773C2.62305 70.2832 1.95508 71.3145 1.96094 72.9609ZM16.3984 69.5039V76.4062H11.4766V69.5039H16.3984ZM12.5781 75.5039H15.3203V70.3828H12.5781V75.5039ZM18.4727 79.0195V68.4961H19.5859V79.0195H18.4727ZM33.7539 73.1016V73.9336H29.5234V74.8125H32.5586V77.1797H26.4414V78.0469H32.8516V78.8906H25.3516V76.4062H31.457V75.6211H25.3398V74.8125H28.4219V73.9336H24.2031V73.1016H33.7539ZM24.6719 71.8477C26.6816 71.7363 28.0996 71.1211 28.3281 70.2305H25.1523V69.375H28.4219V68.4492H29.5234V69.375H32.8047V70.2305H29.6113C29.834 71.1211 31.252 71.7363 33.2852 71.8477L32.9453 72.6914C31.1172 72.5566 29.6289 72.0234 28.9727 71.1035C28.3164 72.0234 26.8281 72.5566 24.9883 72.6914L24.6719 71.8477ZM38.2656 70.1719C38.2598 71.5664 39.2148 72.8789 40.7969 73.4062L40.1875 74.2969C39.0332 73.875 38.1777 73.0312 37.7266 71.9707C37.2637 73.1367 36.373 74.0508 35.1484 74.5195L34.5508 73.6172C36.1973 73.0488 37.1465 71.666 37.1523 70.1133V69.0352H38.2656V70.1719ZM36.2031 76.1484V75.2695H43.3164V78.9961H42.2031V76.1484H36.2031ZM39.9883 71.5312V70.6172H42.2031V68.4961H43.3164V74.7188H42.2031V71.5312H39.9883ZM51.0508 68.9648C52.5859 68.9648 53.6641 69.8086 53.6758 71.0625C53.6641 72.1289 52.8555 72.9082 51.6367 73.1016V74.0391C52.5625 73.9863 53.5 73.8984 54.3672 73.7695L54.4492 74.5898C52.2461 74.9883 49.7734 75.0293 47.9688 75.0234L47.8516 74.1211C48.6367 74.127 49.5566 74.1211 50.5234 74.0859V73.1133C49.2695 72.9375 48.4316 72.1465 48.4375 71.0625C48.4316 69.8086 49.5098 68.9648 51.0508 68.9648ZM49.3398 78.7734V75.832H50.4531V77.8594H56.5V78.7734H49.3398ZM49.4805 71.0625C49.4688 71.8066 50.125 72.293 51.0508 72.293C51.9824 72.293 52.6211 71.8066 52.6211 71.0625C52.6211 70.3008 51.9824 69.8203 51.0508 69.8203C50.125 69.8203 49.4688 70.3008 49.4805 71.0625ZM55.0117 76.5352V68.5078H56.125V71.9766H57.625V72.9141H56.125V76.5352H55.0117ZM67.8438 76.8047V77.7422H58.2344V76.8047H60.8594V74.9531H59.4062V71.6133H65.5703V70.1484H59.3828V69.2344H66.6719V72.5156H60.5078V74.0391H66.918V74.9531H65.3242V76.8047H67.8438ZM61.9375 76.8047H64.2344V74.9531H61.9375V76.8047ZM74.8633 72.9375V73.8516H72.6484V75.7969C73.6211 75.7559 74.5996 75.6914 75.5195 75.5859L75.6016 76.4062C73.2871 76.752 70.8027 76.7871 68.8047 76.793L68.6641 75.8672C69.5488 75.8672 70.5273 75.8613 71.5352 75.8379V73.8516H69.4258V69.4688H74.8164V70.3711H70.5273V72.9375H74.8633ZM76.1758 79.0195V68.4961H77.2891V79.0195H76.1758ZM82.7031 75.4219C82.7031 76.3301 83.1543 77.2852 84.1035 77.8652C85.0645 77.2383 85.5215 76.2188 85.5273 75.4219V74.8594H86.6172V75.4219C86.6172 76.5059 87.332 77.584 88.7266 78.0234L88.1523 78.8555C87.1211 78.4863 86.418 77.7832 86.0547 76.916C85.7207 77.7598 85.0938 78.5449 84.1211 78.9492C83.125 78.5684 82.4863 77.8242 82.1582 76.9629C81.7832 77.7891 81.0859 78.4863 80.1016 78.8555L79.5625 78.0234C80.9043 77.5547 81.625 76.4414 81.6367 75.4219V74.8594H82.7031V75.4219ZM79.1406 71.5547C79.1348 70.1016 80.3008 69.0703 81.8828 69.0703C83.2422 69.0703 84.3203 69.873 84.5605 71.0625H86.6172V68.4961H87.7305V74.4492H86.6172V71.9766H84.5781C84.3613 73.1953 83.2715 74.0273 81.8828 74.0273C80.3008 74.0273 79.1348 73.002 79.1406 71.5547ZM80.207 71.5547C80.2012 72.4629 80.9102 73.1016 81.8828 73.1016C82.832 73.1016 83.541 72.4629 83.5469 71.5547C83.541 70.6289 82.832 70.002 81.8828 70.0078C80.9102 70.002 80.2012 70.6289 80.207 71.5547ZM92.1953 69.2812C93.625 69.2871 94.6621 70.4941 94.832 72.4336H97V68.4961H98.1016V79.0195H97V73.3359H94.8438C94.7207 75.3867 93.6602 76.6582 92.1953 76.6523C90.6309 76.6582 89.5234 75.2285 89.5352 72.9609C89.5234 70.7168 90.6309 69.2871 92.1953 69.2812ZM90.5898 72.9609C90.5957 74.6309 91.2461 75.6562 92.1953 75.6562C93.1445 75.6562 93.7949 74.6309 93.8008 72.9609C93.7949 71.3145 93.1445 70.2832 92.1953 70.2773C91.2461 70.2832 90.5957 71.3145 90.5898 72.9609ZM109.328 76.7578V77.6836H99.7188V76.7578H102.016V74.0156C101.154 73.541 100.627 72.791 100.633 71.8477C100.627 70.1953 102.25 69.1113 104.5 69.1055C106.756 69.1113 108.379 70.1953 108.379 71.8477C108.379 72.7734 107.875 73.5176 107.031 73.9922V76.7578H109.328ZM101.711 71.8477C101.711 72.9727 102.854 73.7051 104.5 73.7109C106.135 73.7051 107.295 72.9727 107.301 71.8477C107.295 70.7168 106.135 69.9961 104.5 69.9961C102.854 69.9961 101.711 70.7168 101.711 71.8477ZM103.117 76.7578H105.906V74.4258C105.479 74.5254 105.004 74.5781 104.5 74.5781C104.008 74.5781 103.539 74.5254 103.117 74.4258V76.7578ZM111.285 78.082C110.828 78.0762 110.447 77.707 110.453 77.25C110.447 76.793 110.828 76.418 111.285 76.418C111.736 76.418 112.111 76.793 112.117 77.25C112.111 77.707 111.736 78.0762 111.285 78.082Z" fill="#5262F5"/>
</svg>
