<svg width="90" height="82" viewBox="0 0 90 82" fill="none" xmlns="http://www.w3.org/2000/svg">
<path d="M45 3.75C51.9619 3.75 58.6387 6.51562 63.5616 11.4384C68.4844 16.3613 71.25 23.0381 71.25 30C71.25 36.9619 68.4844 43.6387 63.5616 48.5616C58.6387 53.4844 51.9619 56.25 45 56.25C38.0381 56.25 31.3613 53.4844 26.4384 48.5616C21.5156 43.6387 18.75 36.9619 18.75 30C18.75 23.0381 21.5156 16.3613 26.4384 11.4384C31.3613 6.51562 38.0381 3.75 45 3.75ZM45 52.5C50.9674 52.5 56.6903 50.1295 60.9099 45.9099C65.1295 41.6903 67.5 35.9674 67.5 30C67.5 24.0326 65.1295 18.3097 60.9099 14.0901C56.6903 9.87053 50.9674 7.5 45 7.5C39.0326 7.5 33.3097 9.87053 29.0901 14.0901C24.8705 18.3097 22.5 24.0326 22.5 30C22.5 35.9674 24.8705 41.6903 29.0901 45.9099C33.3097 50.1295 39.0326 52.5 45 52.5ZM47.8125 42.1875C47.8125 42.9334 47.5162 43.6488 46.9887 44.1762C46.4613 44.7037 45.7459 45 45 45C44.2541 45 43.5387 44.7037 43.0113 44.1762C42.4838 43.6488 42.1875 42.9334 42.1875 42.1875C42.1875 41.4416 42.4838 40.7262 43.0113 40.1988C43.5387 39.6713 44.2541 39.375 45 39.375C45.7459 39.375 46.4613 39.6713 46.9887 40.1988C47.5162 40.7262 47.8125 41.4416 47.8125 42.1875ZM45 15C45.4973 15 45.9742 15.1975 46.3258 15.5492C46.6775 15.9008 46.875 16.3777 46.875 16.875V33.75C46.875 34.2473 46.6775 34.7242 46.3258 35.0758C45.9742 35.4275 45.4973 35.625 45 35.625C44.5027 35.625 44.0258 35.4275 43.6742 35.0758C43.3225 34.7242 43.125 34.2473 43.125 33.75V16.875C43.125 16.3777 43.3225 15.9008 43.6742 15.5492C44.0258 15.1975 44.5027 15 45 15Z" fill="#FF5A5A" fill-opacity="0.7"/>
<path d="M4.72266 71.5898C4.7168 73.3477 5.87109 75.1641 7.48828 75.8555L6.87891 76.7227C5.64258 76.1777 4.6582 75.0176 4.17188 73.6172C3.68555 75.1172 2.70117 76.3945 1.47656 76.9922L0.832031 76.1133C2.41406 75.3691 3.58594 73.4004 3.59766 71.5898V70.4766H1.19531V69.5508H7.11328V70.4766H4.72266V71.5898ZM8.4375 78.9961V68.4961H9.55078V78.9961H8.4375ZM19.4766 68.4961V71.0859H21V72.0234H19.4766V74.6367H18.3633V68.4961H19.4766ZM11.168 73.6875C13.6875 73.0254 15.1816 71.6953 15.375 70.043H11.6719V69.1406H16.5703C16.5645 71.8418 14.7422 73.7402 11.625 74.543L11.168 73.6875ZM12.5391 75.9961V75.0938H19.4766V78.9961H18.3633V75.9961H12.5391ZM33.293 68.4961V79.0195H32.1797V73.5586H30.0117V72.6562H32.1797V68.4961H33.293ZM24.5273 76.125C26.1152 75.3926 27.1582 73.5996 27.1523 71.8711V71.1797H24.8203V70.2891H27.1641V68.707H28.2773V70.2891H30.5508V71.1797H28.2539V71.8711C28.2539 73.5293 29.3262 75.2344 30.9375 75.9492L30.3164 76.8047C29.1152 76.2773 28.1895 75.1758 27.7207 73.8574C27.2637 75.252 26.3438 76.4238 25.1367 76.9805L24.5273 76.125ZM43.6172 68.4961V79.0195H42.5039V68.4961H43.6172ZM35.4844 70.3477V69.4453H40.4062V73.2773H36.6328V75.5742C38.3379 75.5684 39.8203 75.4863 41.5781 75.1992L41.6836 76.1133C39.8262 76.4238 38.2441 76.4941 36.3867 76.5H35.4961V72.3867H39.2695V70.3477H35.4844ZM51.5273 72.9375V73.8516H49.3125V75.7969C50.2852 75.7559 51.2637 75.6914 52.1836 75.5859L52.2656 76.4062C49.9512 76.752 47.4668 76.7871 45.4688 76.793L45.3281 75.8672C46.2129 75.8672 47.1914 75.8613 48.1992 75.8379V73.8516H46.0898V69.4688H51.4805V70.3711H47.1914V72.9375H51.5273ZM52.8398 79.0195V68.4961H53.9531V79.0195H52.8398ZM59.3672 75.4219C59.3672 76.3301 59.8184 77.2852 60.7676 77.8652C61.7285 77.2383 62.1855 76.2188 62.1914 75.4219V74.8594H63.2812V75.4219C63.2812 76.5059 63.9961 77.584 65.3906 78.0234L64.8164 78.8555C63.7852 78.4863 63.082 77.7832 62.7188 76.916C62.3848 77.7598 61.7578 78.5449 60.7852 78.9492C59.7891 78.5684 59.1504 77.8242 58.8223 76.9629C58.4473 77.7891 57.75 78.4863 56.7656 78.8555L56.2266 78.0234C57.5684 77.5547 58.2891 76.4414 58.3008 75.4219V74.8594H59.3672V75.4219ZM55.8047 71.5547C55.7988 70.1016 56.9648 69.0703 58.5469 69.0703C59.9062 69.0703 60.9844 69.873 61.2246 71.0625H63.2812V68.4961H64.3945V74.4492H63.2812V71.9766H61.2422C61.0254 73.1953 59.9355 74.0273 58.5469 74.0273C56.9648 74.0273 55.7988 73.002 55.8047 71.5547ZM56.8711 71.5547C56.8652 72.4629 57.5742 73.1016 58.5469 73.1016C59.4961 73.1016 60.2051 72.4629 60.2109 71.5547C60.2051 70.6289 59.4961 70.002 58.5469 70.0078C57.5742 70.002 56.8652 70.6289 56.8711 71.5547ZM68.8594 69.2812C70.2891 69.2871 71.3262 70.4941 71.4961 72.4336H73.6641V68.4961H74.7656V79.0195H73.6641V73.3359H71.5078C71.3848 75.3867 70.3242 76.6582 68.8594 76.6523C67.2949 76.6582 66.1875 75.2285 66.1992 72.9609C66.1875 70.7168 67.2949 69.2871 68.8594 69.2812ZM67.2539 72.9609C67.2598 74.6309 67.9102 75.6562 68.8594 75.6562C69.8086 75.6562 70.459 74.6309 70.4648 72.9609C70.459 71.3145 69.8086 70.2832 68.8594 70.2773C67.9102 70.2832 67.2598 71.3145 67.2539 72.9609ZM85.9922 76.7578V77.6836H76.3828V76.7578H78.6797V74.0156C77.8184 73.541 77.291 72.791 77.2969 71.8477C77.291 70.1953 78.9141 69.1113 81.1641 69.1055C83.4199 69.1113 85.043 70.1953 85.043 71.8477C85.043 72.7734 84.5391 73.5176 83.6953 73.9922V76.7578H85.9922ZM78.375 71.8477C78.375 72.9727 79.5176 73.7051 81.1641 73.7109C82.7988 73.7051 83.959 72.9727 83.9648 71.8477C83.959 70.7168 82.7988 69.9961 81.1641 69.9961C79.5176 69.9961 78.375 70.7168 78.375 71.8477ZM79.7812 76.7578H82.5703V74.4258C82.1426 74.5254 81.668 74.5781 81.1641 74.5781C80.6719 74.5781 80.2031 74.5254 79.7812 74.4258V76.7578ZM87.9492 78.082C87.4922 78.0762 87.1113 77.707 87.1172 77.25C87.1113 76.793 87.4922 76.418 87.9492 76.418C88.4004 76.418 88.7754 76.793 88.7812 77.25C88.7754 77.707 88.4004 78.0762 87.9492 78.082Z" fill="#FF5A5A"/>
</svg>
