<svg width="100" height="80" viewBox="0 0 100 80" fill="none" xmlns="http://www.w3.org/2000/svg">
<path d="M10.2324 71.1016V71.9336H6.00195V72.8125H9.03711V75.1797H2.91992V76.0469H9.33008V76.8906H1.83008V74.4062H7.93555V73.6211H1.81836V72.8125H4.90039V71.9336H0.681641V71.1016H10.2324ZM1.15039 69.8477C3.16016 69.7363 4.57812 69.1211 4.80664 68.2305H1.63086V67.375H4.90039V66.4492H6.00195V67.375H9.2832V68.2305H6.08984C6.3125 69.1211 7.73047 69.7363 9.76367 69.8477L9.42383 70.6914C7.5957 70.5566 6.10742 70.0234 5.45117 69.1035C4.79492 70.0234 3.30664 70.5566 1.4668 70.6914L1.15039 69.8477ZM14.7441 68.1719C14.7383 69.5664 15.6934 70.8789 17.2754 71.4062L16.666 72.2969C15.5117 71.875 14.6562 71.0312 14.2051 69.9707C13.7422 71.1367 12.8516 72.0508 11.627 72.5195L11.0293 71.6172C12.6758 71.0488 13.625 69.666 13.6309 68.1133V67.0352H14.7441V68.1719ZM12.6816 74.1484V73.2695H19.7949V76.9961H18.6816V74.1484H12.6816ZM16.4668 69.5312V68.6172H18.6816V66.4961H19.7949V72.7188H18.6816V69.5312H16.4668ZM30.1074 66.4961V77.0195H28.9941V66.4961H30.1074ZM21.7754 70.9609C21.7754 68.7168 22.9062 67.2871 24.4941 67.2812C26.0527 67.2871 27.2012 68.7168 27.2012 70.9609C27.2012 73.2285 26.0527 74.6582 24.4941 74.6523C22.9062 74.6582 21.7754 73.2285 21.7754 70.9609ZM22.8535 70.9609C22.8477 72.6309 23.5156 73.6562 24.4941 73.6562C25.4551 73.6562 26.123 72.6309 26.123 70.9609C26.123 69.3145 25.4551 68.2832 24.4941 68.2773C23.5156 68.2832 22.8477 69.3145 22.8535 70.9609ZM37.9004 66.9648C39.4355 66.9648 40.5137 67.8086 40.5254 69.0625C40.5137 70.1289 39.7051 70.9082 38.4863 71.1016V72.0391C39.4121 71.9863 40.3496 71.8984 41.2168 71.7695L41.2988 72.5898C39.0957 72.9883 36.623 73.0293 34.8184 73.0234L34.7012 72.1211C35.4863 72.127 36.4062 72.1211 37.373 72.0859V71.1133C36.1191 70.9375 35.2812 70.1465 35.2871 69.0625C35.2812 67.8086 36.3594 66.9648 37.9004 66.9648ZM36.1895 76.7734V73.832H37.3027V75.8594H43.3496V76.7734H36.1895ZM36.3301 69.0625C36.3184 69.8066 36.9746 70.293 37.9004 70.293C38.832 70.293 39.4707 69.8066 39.4707 69.0625C39.4707 68.3008 38.832 67.8203 37.9004 67.8203C36.9746 67.8203 36.3184 68.3008 36.3301 69.0625ZM41.8613 74.5352V66.5078H42.9746V69.9766H44.4746V70.9141H42.9746V74.5352H41.8613ZM54.6934 74.8047V75.7422H45.084V74.8047H47.709V72.9531H46.2559V69.6133H52.4199V68.1484H46.2324V67.2344H53.5215V70.5156H47.3574V72.0391H53.7676V72.9531H52.1738V74.8047H54.6934ZM48.7871 74.8047H51.084V72.9531H48.7871V74.8047ZM61.7129 70.9375V71.8516H59.498V73.7969C60.4707 73.7559 61.4492 73.6914 62.3691 73.5859L62.4512 74.4062C60.1367 74.752 57.6523 74.7871 55.6543 74.793L55.5137 73.8672C56.3984 73.8672 57.377 73.8613 58.3848 73.8379V71.8516H56.2754V67.4688H61.666V68.3711H57.377V70.9375H61.7129ZM63.0254 77.0195V66.4961H64.1387V77.0195H63.0254ZM69.5527 73.4219C69.5527 74.3301 70.0039 75.2852 70.9531 75.8652C71.9141 75.2383 72.3711 74.2188 72.377 73.4219V72.8594H73.4668V73.4219C73.4668 74.5059 74.1816 75.584 75.5762 76.0234L75.002 76.8555C73.9707 76.4863 73.2676 75.7832 72.9043 74.916C72.5703 75.7598 71.9434 76.5449 70.9707 76.9492C69.9746 76.5684 69.3359 75.8242 69.0078 74.9629C68.6328 75.7891 67.9355 76.4863 66.9512 76.8555L66.4121 76.0234C67.7539 75.5547 68.4746 74.4414 68.4863 73.4219V72.8594H69.5527V73.4219ZM65.9902 69.5547C65.9844 68.1016 67.1504 67.0703 68.7324 67.0703C70.0918 67.0703 71.1699 67.873 71.4102 69.0625H73.4668V66.4961H74.5801V72.4492H73.4668V69.9766H71.4277C71.2109 71.1953 70.1211 72.0273 68.7324 72.0273C67.1504 72.0273 65.9844 71.002 65.9902 69.5547ZM67.0566 69.5547C67.0508 70.4629 67.7598 71.1016 68.7324 71.1016C69.6816 71.1016 70.3906 70.4629 70.3965 69.5547C70.3906 68.6289 69.6816 68.002 68.7324 68.0078C67.7598 68.002 67.0508 68.6289 67.0566 69.5547ZM79.0449 67.2812C80.4746 67.2871 81.5117 68.4941 81.6816 70.4336H83.8496V66.4961H84.9512V77.0195H83.8496V71.3359H81.6934C81.5703 73.3867 80.5098 74.6582 79.0449 74.6523C77.4805 74.6582 76.373 73.2285 76.3848 70.9609C76.373 68.7168 77.4805 67.2871 79.0449 67.2812ZM77.4395 70.9609C77.4453 72.6309 78.0957 73.6562 79.0449 73.6562C79.9941 73.6562 80.6445 72.6309 80.6504 70.9609C80.6445 69.3145 79.9941 68.2832 79.0449 68.2773C78.0957 68.2832 77.4453 69.3145 77.4395 70.9609ZM96.1777 74.7578V75.6836H86.5684V74.7578H88.8652V72.0156C88.0039 71.541 87.4766 70.791 87.4824 69.8477C87.4766 68.1953 89.0996 67.1113 91.3496 67.1055C93.6055 67.1113 95.2285 68.1953 95.2285 69.8477C95.2285 70.7734 94.7246 71.5176 93.8809 71.9922V74.7578H96.1777ZM88.5605 69.8477C88.5605 70.9727 89.7031 71.7051 91.3496 71.7109C92.9844 71.7051 94.1445 70.9727 94.1504 69.8477C94.1445 68.7168 92.9844 67.9961 91.3496 67.9961C89.7031 67.9961 88.5605 68.7168 88.5605 69.8477ZM89.9668 74.7578H92.7559V72.4258C92.3281 72.5254 91.8535 72.5781 91.3496 72.5781C90.8574 72.5781 90.3887 72.5254 89.9668 72.4258V74.7578ZM98.1348 76.082C97.6777 76.0762 97.2969 75.707 97.3027 75.25C97.2969 74.793 97.6777 74.418 98.1348 74.418C98.5859 74.418 98.9609 74.793 98.9668 75.25C98.9609 75.707 98.5859 76.0762 98.1348 76.082Z" fill="#64C59A"/>
<g clip-path="url(#clip0_2917_13379)">
<path d="M50 0C34.5361 0 22 12.5361 22 28C22 43.4647 34.5361 56 50 56C65.4647 56 78 43.4647 78 28C78 12.5361 65.4647 0 50 0ZM50 52.5551C36.4909 52.5551 25.5 41.5091 25.5 27.9999C25.5 14.4908 36.4909 3.49989 50 3.49989C63.5091 3.49989 74.5 14.4908 74.5 27.9999C74.5 41.509 63.5091 52.5551 50 52.5551ZM61.1746 17.7546L44.7464 34.286L37.3483 26.8879C36.6649 26.2045 35.5572 26.2045 34.8729 26.8879C34.1896 27.5713 34.1896 28.679 34.8729 29.3624L43.5346 38.0249C44.2179 38.7074 45.3257 38.7074 46.0099 38.0249C46.0887 37.9461 46.1561 37.8603 46.2174 37.7711L63.6509 20.2299C64.3334 19.5466 64.3334 18.4388 63.6509 17.7546C62.9666 17.0713 61.8589 17.0713 61.1746 17.7546Z" fill="#64C59A" fill-opacity="0.7"/>
</g>
<defs>
<clipPath id="clip0_2917_13379">
<rect width="56" height="56" fill="white" transform="translate(22)"/>
</clipPath>
</defs>
</svg>
